<svg width="24" height="24" viewBox="0 0 24 24" fill="none" xmlns="http://www.w3.org/2000/svg">
<path d="M23.0001 3.01006C22.0425 3.68553 20.9822 4.20217 19.8601 4.54006C19.2579 3.84757 18.4575 3.35675 17.5672 3.13398C16.6769 2.91122 15.7396 2.96725 14.8822 3.29451C14.0248 3.62177 13.2886 4.20446 12.7731 4.96377C12.2576 5.72309 11.9878 6.62239 12.0001 7.54006V8.54006C10.2428 8.58562 8.5014 8.19587 6.93113 7.4055C5.36087 6.61513 4.01044 5.44869 3.00012 4.01006C3.00012 4.01006 -0.999878 13.0101 8.00012 17.0101C5.94065 18.408 3.48728 19.109 1.00012 19.0101C10.0001 24.0101 21.0001 19.0101 21.0001 7.51006C20.9992 7.23151 20.9724 6.95365 20.9201 6.68006C21.9407 5.67355 22.6609 4.40277 23.0001 3.01006V3.01006Z" stroke="#02897A" stroke-width="2" stroke-linecap="round" stroke-linejoin="round"/>
</svg>
